<?xml version="1.0" encoding="UTF-8"?>
<svg width="80" height="80" viewBox="0 0 80 80" fill="none" xmlns="http://www.w3.org/2000/svg">
  <circle cx="40" cy="40" r="35" fill="#0055A4"/>
  <path d="M40 10C23.431 10 10 23.431 10 40C10 56.569 23.431 70 40 70C56.569 70 70 56.569 70 40C70 23.431 56.569 10 40 10ZM40 15C53.807 15 65 26.193 65 40C65 53.807 53.807 65 40 65C26.193 65 15 53.807 15 40C15 26.193 26.193 15 40 15Z" fill="#FFFFFF"/>
  <path d="M40 20C29.055 20 20 29.055 20 40C20 50.945 29.055 60 40 60C50.945 60 60 50.945 60 40C60 29.055 50.945 20 40 20ZM40 25C48.284 25 55 31.716 55 40C55 48.284 48.284 55 40 55C31.716 55 25 48.284 25 40C25 31.716 31.716 25 40 25Z" fill="#FFFFFF"/>
  <path d="M40 30C34.477 30 30 34.477 30 40C30 45.523 34.477 50 40 50C45.523 50 50 45.523 50 40C50 34.477 45.523 30 40 30Z" fill="#FFFFFF"/>
</svg> 